<svg xmlns="http://www.w3.org/2000/svg" style="display: none;">
    <symbol id="settings" viewBox="0 0 24 24" fill="none">
        <path fill-rule="evenodd" clip-rule="evenodd"
            d="M11.0175 19C10.6601 19 10.3552 18.7347 10.297 18.373C10.2434 18.0804 10.038 17.8413 9.76171 17.75C9.53658 17.6707 9.31645 17.5772 9.10261 17.47C8.84815 17.3365 8.54289 17.3565 8.30701 17.522C8.02156 17.7325 7.62943 17.6999 7.38076 17.445L6.41356 16.453C6.15326 16.186 6.11944 15.7651 6.33361 15.458C6.49878 15.2105 6.52257 14.8914 6.39601 14.621C6.31262 14.4332 6.23906 14.2409 6.17566 14.045C6.08485 13.7363 5.8342 13.5051 5.52533 13.445C5.15287 13.384 4.8779 13.0559 4.87501 12.669V11.428C4.87303 10.9821 5.18705 10.6007 5.61601 10.528C5.94143 10.4645 6.21316 10.2359 6.33751 9.921C6.37456 9.83233 6.41356 9.74433 6.45451 9.657C6.61989 9.33044 6.59705 8.93711 6.39503 8.633C6.1424 8.27288 6.18119 7.77809 6.48668 7.464L7.19746 6.735C7.54802 6.37532 8.1009 6.32877 8.50396 6.625L8.52638 6.641C8.82735 6.84876 9.21033 6.88639 9.54428 6.741C9.90155 6.60911 10.1649 6.29424 10.2375 5.912L10.2473 5.878C10.3275 5.37197 10.7536 5.00021 11.2535 5H12.1115C12.6248 4.99976 13.0629 5.38057 13.1469 5.9L13.1625 5.97C13.2314 6.33617 13.4811 6.63922 13.8216 6.77C14.1498 6.91447 14.5272 6.87674 14.822 6.67L14.8707 6.634C15.2842 6.32834 15.8528 6.37535 16.2133 6.745L16.8675 7.417C17.1954 7.75516 17.2366 8.28693 16.965 8.674C16.7522 8.99752 16.7251 9.41325 16.8938 9.763L16.9358 9.863C17.0724 10.2045 17.3681 10.452 17.7216 10.521C18.1837 10.5983 18.5235 11.0069 18.525 11.487V12.6C18.5249 13.0234 18.2263 13.3846 17.8191 13.454C17.4842 13.5199 17.2114 13.7686 17.1083 14.102C17.0628 14.2353 17.0121 14.3687 16.9562 14.502C16.8261 14.795 16.855 15.1364 17.0323 15.402C17.2662 15.7358 17.2299 16.1943 16.9465 16.485L16.0388 17.417C15.7792 17.6832 15.3698 17.7175 15.0716 17.498C14.8226 17.3235 14.5001 17.3043 14.2331 17.448C14.0428 17.5447 13.8475 17.6305 13.6481 17.705C13.3692 17.8037 13.1636 18.0485 13.1099 18.346C13.053 18.7203 12.7401 18.9972 12.3708 19H11.0175Z"
            stroke="#000000" stroke-width="1.5" stroke-linecap="round" stroke-linejoin="round" />
        <path fill-rule="evenodd" clip-rule="evenodd"
            d="M13.9747 12C13.9747 13.2885 12.9563 14.333 11.7 14.333C10.4437 14.333 9.42533 13.2885 9.42533 12C9.42533 10.7115 10.4437 9.66699 11.7 9.66699C12.9563 9.66699 13.9747 10.7115 13.9747 12Z"
            stroke="#000000" stroke-width="1.5" stroke-linecap="round" stroke-linejoin="round" />
    </symbol>
    <symbol id="star" viewBox="0 0 24 24" fill="none">
        <path fill-rule="evenodd" clip-rule="evenodd"
            d="M14.349 8.515L12.5 5L10.651 8.515C10.5204 8.77186 10.3313 8.99449 10.099 9.165C9.86556 9.33638 9.59543 9.45107 9.31 9.5L5.5 10.247L8.16 13.428C8.52377 13.8267 8.69542 14.3643 8.63 14.9L8.124 19L11.632 17.3C11.9026 17.1689 12.1993 17.1006 12.5 17.1C12.7821 17.1009 13.0599 17.1694 13.31 17.3L16.9 18.895L16.394 14.844C16.33 14.3095 16.502 13.7736 16.865 13.376L19.5 10.247L15.69 9.5C15.4042 9.45122 15.1337 9.33652 14.9 9.165C14.6681 8.99438 14.4793 8.77175 14.349 8.515Z"
            stroke="#000000" stroke-width="1.5" stroke-linecap="round" stroke-linejoin="round" />
    </symbol>
    <symbol id="upload" viewBox="0 0 24 24" fill="none">
        <path
            d="M5.625 15C5.625 14.5858 5.28921 14.25 4.875 14.25C4.46079 14.25 4.125 14.5858 4.125 15H5.625ZM4.875 16H4.125H4.875ZM19.275 15C19.275 14.5858 18.9392 14.25 18.525 14.25C18.1108 14.25 17.775 14.5858 17.775 15H19.275ZM12.2914 5.46127C12.5461 5.13467 12.4879 4.66338 12.1613 4.40862C11.8347 4.15387 11.3634 4.21212 11.1086 4.53873L12.2914 5.46127ZM7.20862 9.53873C6.95387 9.86533 7.01212 10.3366 7.33873 10.5914C7.66533 10.8461 8.13662 10.7879 8.39138 10.4613L7.20862 9.53873ZM12.2914 4.53873C12.0366 4.21212 11.5653 4.15387 11.2387 4.40862C10.9121 4.66338 10.8539 5.13467 11.1086 5.46127L12.2914 4.53873ZM15.0086 10.4613C15.2634 10.7879 15.7347 10.8461 16.0613 10.5914C16.3879 10.3366 16.4461 9.86533 16.1914 9.53873L15.0086 10.4613ZM12.45 5C12.45 4.58579 12.1142 4.25 11.7 4.25C11.2858 4.25 10.95 4.58579 10.95 5H12.45ZM10.95 16C10.95 16.4142 11.2858 16.75 11.7 16.75C12.1142 16.75 12.45 16.4142 12.45 16H10.95ZM4.125 15V16H5.625V15H4.125ZM4.125 16C4.125 18.0531 5.75257 19.75 7.8 19.75V18.25C6.61657 18.25 5.625 17.2607 5.625 16H4.125ZM7.8 19.75H15.6V18.25H7.8V19.75ZM15.6 19.75C17.6474 19.75 19.275 18.0531 19.275 16H17.775C17.775 17.2607 16.7834 18.25 15.6 18.25V19.75ZM19.275 16V15H17.775V16H19.275ZM11.1086 4.53873L7.20862 9.53873L8.39138 10.4613L12.2914 5.46127L11.1086 4.53873ZM11.1086 5.46127L15.0086 10.4613L16.1914 9.53873L12.2914 4.53873L11.1086 5.46127ZM10.95 5V16H12.45V5H10.95Z"
            fill="#000000" />
    </symbol>
    <symbol id="delete-user" viewBox="0 0 24 24" fill="none">
        <path fill-rule="evenodd" clip-rule="evenodd"
            d="M11.5 7C11.5 8.10457 10.6046 9 9.5 9C8.39543 9 7.5 8.10457 7.5 7C7.5 5.89543 8.39543 5 9.5 5C10.6046 5 11.5 5.89543 11.5 7Z"
            stroke="#000000" stroke-width="1.5" stroke-linecap="round" stroke-linejoin="round" />
        <path fill-rule="evenodd" clip-rule="evenodd"
            d="M14.5 15.5C14.5 17.433 12.261 19 9.5 19C6.739 19 4.5 17.433 4.5 15.5C4.5 13.567 6.739 12 9.5 12C12.261 12 14.5 13.567 14.5 15.5Z"
            stroke="#000000" stroke-width="1.5" stroke-linecap="round" stroke-linejoin="round" />
        <path
            d="M17.0303 4.46967C16.7374 4.17678 16.2626 4.17678 15.9697 4.46967C15.6768 4.76256 15.6768 5.23744 15.9697 5.53033L17.0303 4.46967ZM17.9697 7.53033C18.2626 7.82322 18.7374 7.82322 19.0303 7.53033C19.3232 7.23744 19.3232 6.76256 19.0303 6.46967L17.9697 7.53033ZM19.0303 6.46967C18.7374 6.17678 18.2626 6.17678 17.9697 6.46967C17.6768 6.76256 17.6768 7.23744 17.9697 7.53033L19.0303 6.46967ZM19.9697 9.53033C20.2626 9.82322 20.7374 9.82322 21.0303 9.53033C21.3232 9.23744 21.3232 8.76256 21.0303 8.46967L19.9697 9.53033ZM19.0303 7.53033C19.3232 7.23744 19.3232 6.76256 19.0303 6.46967C18.7374 6.17678 18.2626 6.17678 17.9697 6.46967L19.0303 7.53033ZM15.9697 8.46967C15.6768 8.76256 15.6768 9.23744 15.9697 9.53033C16.2626 9.82322 16.7374 9.82322 17.0303 9.53033L15.9697 8.46967ZM17.9697 6.46967C17.6768 6.76256 17.6768 7.23744 17.9697 7.53033C18.2626 7.82322 18.7374 7.82322 19.0303 7.53033L17.9697 6.46967ZM21.0303 5.53033C21.3232 5.23744 21.3232 4.76256 21.0303 4.46967C20.7374 4.17678 20.2626 4.17678 19.9697 4.46967L21.0303 5.53033ZM15.9697 5.53033L17.9697 7.53033L19.0303 6.46967L17.0303 4.46967L15.9697 5.53033ZM17.9697 7.53033L19.9697 9.53033L21.0303 8.46967L19.0303 6.46967L17.9697 7.53033ZM17.9697 6.46967L15.9697 8.46967L17.0303 9.53033L19.0303 7.53033L17.9697 6.46967ZM19.0303 7.53033L21.0303 5.53033L19.9697 4.46967L17.9697 6.46967L19.0303 7.53033Z"
            fill="#000000" />
    </symbol>
    <symbol id="add-user" viewBox="0 0 24 24" fill="none">
        <path fill-rule="evenodd" clip-rule="evenodd"
            d="M11.5 7C11.5 8.10457 10.6046 9 9.5 9C8.39543 9 7.5 8.10457 7.5 7C7.5 5.89543 8.39543 5 9.5 5C10.6046 5 11.5 5.89543 11.5 7Z"
            stroke="#000000" stroke-width="1.5" stroke-linecap="round" stroke-linejoin="round" />
        <path fill-rule="evenodd" clip-rule="evenodd"
            d="M14.5 15.5C14.5 17.433 12.261 19 9.5 19C6.739 19 4.5 17.433 4.5 15.5C4.5 13.567 6.739 12 9.5 12C12.261 12 14.5 13.567 14.5 15.5Z"
            stroke="#000000" stroke-width="1.5" stroke-linecap="round" stroke-linejoin="round" />
        <path
            d="M19.25 5C19.25 4.58579 18.9142 4.25 18.5 4.25C18.0858 4.25 17.75 4.58579 17.75 5H19.25ZM17.75 7C17.75 7.41421 18.0858 7.75 18.5 7.75C18.9142 7.75 19.25 7.41421 19.25 7H17.75ZM19.25 7C19.25 6.58579 18.9142 6.25 18.5 6.25C18.0858 6.25 17.75 6.58579 17.75 7H19.25ZM17.75 9C17.75 9.41421 18.0858 9.75 18.5 9.75C18.9142 9.75 19.25 9.41421 19.25 9H17.75ZM18.5 7.75C18.9142 7.75 19.25 7.41421 19.25 7C19.25 6.58579 18.9142 6.25 18.5 6.25V7.75ZM16.5 6.25C16.0858 6.25 15.75 6.58579 15.75 7C15.75 7.41421 16.0858 7.75 16.5 7.75V6.25ZM18.5 6.25C18.0858 6.25 17.75 6.58579 17.75 7C17.75 7.41421 18.0858 7.75 18.5 7.75V6.25ZM20.5 7.75C20.9142 7.75 21.25 7.41421 21.25 7C21.25 6.58579 20.9142 6.25 20.5 6.25V7.75ZM17.75 5V7H19.25V5H17.75ZM17.75 7V9H19.25V7H17.75ZM18.5 6.25H16.5V7.75H18.5V6.25ZM18.5 7.75H20.5V6.25H18.5V7.75Z"
            fill="#000000" />
    </symbol>
    <symbol id="users" viewBox="0 0 24 24" fill="none">
        <path fill-rule="evenodd" clip-rule="evenodd"
            d="M14.9238 7.281C14.9227 8.5394 13.9018 9.55874 12.6435 9.558C11.3851 9.55726 10.3654 8.53673 10.3658 7.27833C10.3662 6.01994 11.3864 5 12.6448 5C13.2495 5.00027 13.8293 5.24073 14.2567 5.6685C14.6841 6.09627 14.924 6.67631 14.9238 7.281Z"
            stroke="#000000" stroke-width="1.5" stroke-linecap="round" stroke-linejoin="round" />
        <path fill-rule="evenodd" clip-rule="evenodd"
            d="M14.9968 12.919H10.2968C8.65471 12.9706 7.35028 14.3166 7.35028 15.9595C7.35028 17.6024 8.65471 18.9484 10.2968 19H14.9968C16.6388 18.9484 17.9432 17.6024 17.9432 15.9595C17.9432 14.3166 16.6388 12.9706 14.9968 12.919V12.919Z"
            stroke="#000000" stroke-width="1.5" stroke-linecap="round" stroke-linejoin="round" />
        <path fill-rule="evenodd" clip-rule="evenodd"
            d="M20.6878 9.02403C20.6872 9.98653 19.9066 10.7664 18.9441 10.766C17.9816 10.7657 17.2016 9.9852 17.2018 9.0227C17.202 8.06019 17.9823 7.28003 18.9448 7.28003C19.4072 7.28003 19.8507 7.4638 20.1776 7.7909C20.5045 8.11799 20.688 8.56158 20.6878 9.02403V9.02403Z"
            stroke="#000000" stroke-width="1.5" stroke-linecap="round" stroke-linejoin="round" />
        <path fill-rule="evenodd" clip-rule="evenodd"
            d="M4.3338 9.02401C4.3338 9.98664 5.11417 10.767 6.0768 10.767C7.03943 10.767 7.8198 9.98664 7.8198 9.02401C7.8198 8.06137 7.03943 7.28101 6.0768 7.28101C5.11417 7.28101 4.3338 8.06137 4.3338 9.02401V9.02401Z"
            stroke="#000000" stroke-width="1.5" stroke-linecap="round" stroke-linejoin="round" />
        <path
            d="M19.4368 12.839C19.0226 12.839 18.6868 13.1748 18.6868 13.589C18.6868 14.0032 19.0226 14.339 19.4368 14.339V12.839ZM20.7438 13.589L20.7593 12.8392C20.7541 12.839 20.749 12.839 20.7438 12.839V13.589ZM20.7438 18.24V18.99C20.749 18.99 20.7541 18.9899 20.7593 18.9898L20.7438 18.24ZM19.4368 17.49C19.0226 17.49 18.6868 17.8258 18.6868 18.24C18.6868 18.6542 19.0226 18.99 19.4368 18.99V17.49ZM5.58477 14.339C5.99899 14.339 6.33477 14.0032 6.33477 13.589C6.33477 13.1748 5.99899 12.839 5.58477 12.839V14.339ZM4.27777 13.589V12.839C4.27259 12.839 4.26741 12.839 4.26222 12.8392L4.27777 13.589ZM4.27777 18.24L4.26222 18.9898C4.26741 18.9899 4.27259 18.99 4.27777 18.99V18.24ZM5.58477 18.99C5.99899 18.99 6.33477 18.6542 6.33477 18.24C6.33477 17.8258 5.99899 17.49 5.58477 17.49V18.99ZM19.4368 14.339H20.7438V12.839H19.4368V14.339ZM20.7282 14.3388C21.5857 14.3566 22.2715 15.0568 22.2715 15.9145H23.7715C23.7715 14.2405 22.4329 12.8739 20.7593 12.8392L20.7282 14.3388ZM22.2715 15.9145C22.2715 16.7722 21.5857 17.4724 20.7282 17.4902L20.7593 18.9898C22.4329 18.9551 23.7715 17.5885 23.7715 15.9145H22.2715ZM20.7438 17.49H19.4368V18.99H20.7438V17.49ZM5.58477 12.839H4.27777V14.339H5.58477V12.839ZM4.26222 12.8392C2.58861 12.8739 1.25 14.2405 1.25 15.9145H2.75C2.75 15.0568 3.43584 14.3566 4.29332 14.3388L4.26222 12.8392ZM1.25 15.9145C1.25 17.5885 2.58861 18.9551 4.26222 18.9898L4.29332 17.4902C3.43584 17.4724 2.75 16.7722 2.75 15.9145H1.25ZM4.27777 18.99H5.58477V17.49H4.27777V18.99Z"
            fill="#000000" />
    </symbol>
    <symbol id="calendar" viewBox="0 0 24 24" fill="none">
        <path fill-rule="evenodd" clip-rule="evenodd"
            d="M4.875 10V16C4.875 18.2091 6.62109 20 8.775 20H14.625C16.7789 20 18.525 18.2091 18.525 16V10C18.525 7.79086 16.7789 6 14.625 6H8.775C6.62109 6 4.875 7.79086 4.875 10Z"
            stroke="#000000" stroke-width="1.5" stroke-linecap="round" stroke-linejoin="round" />
        <path
            d="M13.875 7C13.875 7.41421 14.2108 7.75 14.625 7.75C15.0392 7.75 15.375 7.41421 15.375 7H13.875ZM15.375 4C15.375 3.58579 15.0392 3.25 14.625 3.25C14.2108 3.25 13.875 3.58579 13.875 4H15.375ZM8.02502 7C8.02502 7.41421 8.36081 7.75 8.77502 7.75C9.18924 7.75 9.52502 7.41421 9.52502 7H8.02502ZM9.52502 4C9.52502 3.58579 9.18924 3.25 8.77502 3.25C8.36081 3.25 8.02502 3.58579 8.02502 4H9.52502ZM8.02502 11.286C8.02502 11.7002 8.36081 12.036 8.77502 12.036C9.18924 12.036 9.52502 11.7002 9.52502 11.286H8.02502ZM11.7 11.286L12.4488 11.3295C12.4496 11.315 12.45 11.3005 12.45 11.286H11.7ZM11.0797 12.5674L11.5748 13.1307L11.5748 13.1307L11.0797 12.5674ZM9.75002 13L9.67768 12.2535C9.29329 12.2907 9.00002 12.6138 9.00002 13C9.00002 13.3862 9.29329 13.7093 9.67768 13.7465L9.75002 13ZM11.0797 13.4326L11.5748 12.8693L11.5748 12.8693L11.0797 13.4326ZM11.7 14.714H12.45C12.45 14.6995 12.4496 14.685 12.4488 14.6705L11.7 14.714ZM9.52502 14.714C9.52502 14.2998 9.18924 13.964 8.77502 13.964C8.36081 13.964 8.02502 14.2998 8.02502 14.714H9.52502ZM13.1549 10.2937C12.8438 10.5671 12.8132 11.041 13.0867 11.3521C13.3602 11.6633 13.8341 11.6938 14.1452 11.4203L13.1549 10.2937ZM14.625 10H15.375C15.375 9.70541 15.2026 9.4381 14.9342 9.31668C14.6658 9.19525 14.3511 9.24219 14.1299 9.43668L14.625 10ZM13.875 16C13.875 16.4142 14.2108 16.75 14.625 16.75C15.0392 16.75 15.375 16.4142 15.375 16H13.875ZM15.375 7V4H13.875V7H15.375ZM9.52502 7V4H8.02502V7H9.52502ZM9.52502 11.286C9.52502 11.0973 9.59439 10.9906 9.69381 10.9129C9.81323 10.8196 10.0076 10.7505 10.2375 10.7505C10.4674 10.7505 10.6618 10.8196 10.7812 10.9129C10.8807 10.9906 10.95 11.0973 10.95 11.286H12.45C12.45 10.6177 12.1538 10.0817 11.7047 9.73087C11.2757 9.39568 10.7389 9.2505 10.2375 9.2505C9.73618 9.2505 9.19932 9.39568 8.7703 9.73087C8.32128 10.0817 8.02502 10.6177 8.02502 11.286H9.52502ZM10.9513 11.2425C10.9339 11.5413 10.7991 11.8155 10.5845 12.0041L11.5748 13.1307C12.0955 12.673 12.4085 12.0222 12.4488 11.3295L10.9513 11.2425ZM10.5845 12.0041C10.3707 12.1921 10.0956 12.28 9.82237 12.2535L9.67768 13.7465C10.3686 13.8135 11.0533 13.5891 11.5748 13.1307L10.5845 12.0041ZM9.82237 13.7465C10.0956 13.72 10.3707 13.8079 10.5845 13.9959L11.5748 12.8693C11.0533 12.4109 10.3686 12.1865 9.67768 12.2535L9.82237 13.7465ZM10.5845 13.9959C10.7991 14.1845 10.9339 14.4587 10.9513 14.7575L12.4488 14.6705C12.4085 13.9778 12.0955 13.327 11.5748 12.8693L10.5845 13.9959ZM10.95 14.714C10.95 14.9027 10.8807 15.0094 10.7812 15.0871C10.6618 15.1804 10.4674 15.2495 10.2375 15.2495C10.0076 15.2495 9.81323 15.1804 9.69381 15.0871C9.59439 15.0094 9.52502 14.9027 9.52502 14.714H8.02502C8.02502 15.3823 8.32128 15.9183 8.7703 16.2691C9.19932 16.6043 9.73618 16.7495 10.2375 16.7495C10.7389 16.7495 11.2757 16.6043 11.7047 16.2691C12.1538 15.9183 12.45 15.3823 12.45 14.714H10.95ZM14.1452 11.4203L15.1202 10.5633L14.1299 9.43668L13.1549 10.2937L14.1452 11.4203ZM13.875 10V16H15.375V10H13.875Z"
            fill="#000000" />
    </symbol>
    <symbol id="clock" viewBox="0 0 24 24" fill="none">
        <path fill-rule="evenodd" clip-rule="evenodd"
            d="M11.6997 19.0007C14.9536 19.0009 17.7551 16.6451 18.3928 13.3725C19.0304 10.0998 17.3268 6.82062 14.3228 5.53817C11.3187 4.25573 7.84967 5.32674 6.03501 8.0969C4.22035 10.8671 4.56476 14.5659 6.85783 16.9337C8.13896 18.2566 9.88174 19.0006 11.6997 19.0007Z"
            stroke="#000000" stroke-width="1.5" stroke-linecap="round" stroke-linejoin="round" />
        <path d="M10.6379 10.1637V13.5757H13.8232" stroke="#000000" stroke-width="1.5"
            stroke-linecap="round" stroke-linejoin="round" />
    </symbol>
    <symbol id="dashboard" viewBox="0 0 24 24" fill="none">
        <path fill-rule="evenodd" clip-rule="evenodd"
            d="M9.918 10.0005H7.082C6.66587 9.99708 6.26541 10.1591 5.96873 10.4509C5.67204 10.7427 5.50343 11.1404 5.5 11.5565V17.4455C5.5077 18.3117 6.21584 19.0078 7.082 19.0005H9.918C10.3341 19.004 10.7346 18.842 11.0313 18.5502C11.328 18.2584 11.4966 17.8607 11.5 17.4445V11.5565C11.4966 11.1404 11.328 10.7427 11.0313 10.4509C10.7346 10.1591 10.3341 9.99708 9.918 10.0005Z"
            stroke="#000000" stroke-width="1.5" stroke-linecap="round" stroke-linejoin="round" />
        <path fill-rule="evenodd" clip-rule="evenodd"
            d="M9.918 4.0006H7.082C6.23326 3.97706 5.52559 4.64492 5.5 5.4936V6.5076C5.52559 7.35629 6.23326 8.02415 7.082 8.0006H9.918C10.7667 8.02415 11.4744 7.35629 11.5 6.5076V5.4936C11.4744 4.64492 10.7667 3.97706 9.918 4.0006Z"
            stroke="#000000" stroke-width="1.5" stroke-linecap="round" stroke-linejoin="round" />
        <path fill-rule="evenodd" clip-rule="evenodd"
            d="M15.082 13.0007H17.917C18.3333 13.0044 18.734 12.8425 19.0309 12.5507C19.3278 12.2588 19.4966 11.861 19.5 11.4447V5.55666C19.4966 5.14054 19.328 4.74282 19.0313 4.45101C18.7346 4.1592 18.3341 3.9972 17.918 4.00066H15.082C14.6659 3.9972 14.2654 4.1592 13.9687 4.45101C13.672 4.74282 13.5034 5.14054 13.5 5.55666V11.4447C13.5034 11.8608 13.672 12.2585 13.9687 12.5503C14.2654 12.8421 14.6659 13.0041 15.082 13.0007Z"
            stroke="#000000" stroke-width="1.5" stroke-linecap="round" stroke-linejoin="round" />
        <path fill-rule="evenodd" clip-rule="evenodd"
            d="M15.082 19.0006H17.917C18.7661 19.0247 19.4744 18.3567 19.5 17.5076V16.4936C19.4744 15.6449 18.7667 14.9771 17.918 15.0006H15.082C14.2333 14.9771 13.5256 15.6449 13.5 16.4936V17.5066C13.525 18.3557 14.2329 19.0241 15.082 19.0006Z"
            stroke="#000000" stroke-width="1.5" stroke-linecap="round" stroke-linejoin="round" />
    </symbol>
    <symbol id="eye" viewBox="0 0 24 24" fill="none">
        <path fill-rule="evenodd" clip-rule="evenodd"
            d="M18.5 12.714C18.5 15.081 15.366 17 11.5 17C7.634 17 4.5 15.081 4.5 12.714C4.5 10.347 7.634 8.42896 11.5 8.42896C15.366 8.42896 18.5 10.347 18.5 12.714Z"
            stroke="#000000" stroke-width="1.5" stroke-linecap="round" stroke-linejoin="round" />
        <path fill-rule="evenodd" clip-rule="evenodd"
            d="M13.2501 12.714C13.2647 13.4249 12.8477 14.074 12.1951 14.3562C11.5424 14.6384 10.7839 14.4977 10.2759 14.0002C9.76792 13.5027 9.61148 12.7472 9.8801 12.0889C10.1487 11.4305 10.789 11.0001 11.5001 11C11.9594 10.9952 12.4019 11.1731 12.7301 11.4945C13.0583 11.816 13.2453 12.2546 13.2501 12.714V12.714Z"
            stroke="#000000" stroke-width="1.5" stroke-linecap="round" stroke-linejoin="round" />
        <path
            d="M10.75 8.429C10.75 8.84321 11.0858 9.179 11.5 9.179C11.9142 9.179 12.25 8.84321 12.25 8.429H10.75ZM12.25 5C12.25 4.58579 11.9142 4.25 11.5 4.25C11.0858 4.25 10.75 4.58579 10.75 5H12.25ZM18.2931 7.05471C18.4813 6.68571 18.3347 6.23403 17.9657 6.04586C17.5967 5.85769 17.145 6.00428 16.9569 6.37329L18.2931 7.05471ZM15.5199 9.19129C15.3317 9.5603 15.4783 10.012 15.8473 10.2001C16.2163 10.3883 16.668 10.2417 16.8561 9.87271L15.5199 9.19129ZM6.04314 6.37329C5.85497 6.00428 5.40329 5.85769 5.03429 6.04586C4.66528 6.23403 4.51869 6.68571 4.70686 7.05471L6.04314 6.37329ZM6.14386 9.87271C6.33203 10.2417 6.78371 10.3883 7.15271 10.2001C7.52172 10.012 7.66831 9.5603 7.48014 9.19129L6.14386 9.87271ZM12.25 8.429V5H10.75V8.429H12.25ZM16.9569 6.37329L15.5199 9.19129L16.8561 9.87271L18.2931 7.05471L16.9569 6.37329ZM4.70686 7.05471L6.14386 9.87271L7.48014 9.19129L6.04314 6.37329L4.70686 7.05471Z"
            fill="#000000" />
    </symbol>
    <symbol id="eye-closed" viewBox="0 0 24 24" fill="none">
        <path
            d="M12.5 9.279C12.9142 9.279 13.25 8.94321 13.25 8.529C13.25 8.11479 12.9142 7.779 12.5 7.779V9.279ZM7.78691 17.0545C8.15666 17.2412 8.60776 17.0928 8.79448 16.7231C8.9812 16.3533 8.83283 15.9022 8.46309 15.7155L7.78691 17.0545ZM11.75 8.529C11.75 8.94321 12.0858 9.279 12.5 9.279C12.9142 9.279 13.25 8.94321 13.25 8.529H11.75ZM13.25 5C13.25 4.58579 12.9142 4.25 12.5 4.25C12.0858 4.25 11.75 4.58579 11.75 5H13.25ZM12.4976 7.779C12.0834 7.78034 11.7487 8.11721 11.75 8.53142C11.7513 8.94563 12.0882 9.28033 12.5024 9.279L12.4976 7.779ZM15.0727 9.61167C15.4729 9.71841 15.8839 9.48051 15.9907 9.08029C16.0974 8.68006 15.8595 8.26908 15.4593 8.16233L15.0727 9.61167ZM7.04684 6.43163C6.86272 6.06058 6.41268 5.90905 6.04163 6.09316C5.67058 6.27728 5.51905 6.72732 5.70316 7.09837L7.04684 6.43163ZM7.14216 9.99837C7.32628 10.3694 7.77632 10.521 8.14737 10.3368C8.51842 10.1527 8.66995 9.70268 8.48584 9.33163L7.14216 9.99837ZM7.57341 19.4918C7.29275 19.7965 7.31219 20.2709 7.61682 20.5516C7.92146 20.8323 8.39594 20.8128 8.67659 20.5082L7.57341 19.4918ZM11.2516 17.7132C11.5323 17.4085 11.5128 16.9341 11.2082 16.6534C10.9035 16.3727 10.4291 16.3922 10.1484 16.6968L11.2516 17.7132ZM20.0518 8.155C20.3323 7.85027 20.3127 7.3758 20.008 7.09524C19.7033 6.81468 19.2288 6.83427 18.9482 7.139L20.0518 8.155ZM16.9282 9.333C16.6477 9.63773 16.6673 10.1122 16.972 10.3928C17.2767 10.6733 17.7512 10.6537 18.0318 10.349L16.9282 9.333ZM10.1484 16.6968C9.86775 17.0015 9.88718 17.4759 10.1918 17.7566C10.4965 18.0373 10.9709 18.0178 11.2516 17.7132L10.1484 16.6968ZM13.1 14.6L13.6516 15.1082L13.6523 15.1074L13.1 14.6ZM14.185 13.419L13.6333 12.9109L13.6327 12.9116L14.185 13.419ZM18.0317 10.3491C18.3123 10.0444 18.2928 9.5699 17.9881 9.2893C17.6834 9.00871 17.2089 9.02824 16.9283 9.33294L18.0317 10.3491ZM10.823 16.4652C10.4144 16.3972 10.0281 16.6734 9.96016 17.082C9.89221 17.4906 10.1684 17.8769 10.577 17.9448L10.823 16.4652ZM12.5 17.353L12.5 16.603H12.4995L12.5 17.353ZM19.5 12.941H20.25C20.25 12.9232 20.2494 12.9055 20.2481 12.8877L19.5 12.941ZM17.8309 9.17814C17.4648 8.98435 17.0109 9.12403 16.8171 9.49011C16.6234 9.8562 16.763 10.3101 17.1291 10.5039L17.8309 9.17814ZM10.4717 14.4167C10.7139 14.7526 11.1827 14.8286 11.5187 14.5863C11.8546 14.3441 11.9306 13.8753 11.6883 13.5393L10.4717 14.4167ZM10.937 12.1447L11.606 12.4838L10.937 12.1447ZM12.5 11.176L12.4991 10.426L12.494 10.426L12.5 11.176ZM13.0229 12.0756C13.3739 12.2955 13.8367 12.1892 14.0566 11.8381C14.2765 11.4871 14.1702 11.0243 13.8191 10.8044L13.0229 12.0756ZM12.5 7.779C10.4478 7.779 8.5544 8.30173 7.15036 9.18663C5.75606 10.0654 4.75 11.3737 4.75 12.941H6.25C6.25 12.0713 6.81094 11.1736 7.95014 10.4556C9.0796 9.74377 10.6862 9.279 12.5 9.279V7.779ZM4.75 12.941C4.75 14.7344 6.05973 16.1823 7.78691 17.0545L8.46309 15.7155C6.99027 14.9718 6.25 13.9336 6.25 12.941H4.75ZM13.25 8.529V5H11.75V8.529H13.25ZM12.5024 9.279C13.3701 9.27619 14.2343 9.38805 15.0727 9.61167L15.4593 8.16233C14.4932 7.90467 13.4974 7.77578 12.4976 7.779L12.5024 9.279ZM5.70316 7.09837L7.14216 9.99837L8.48584 9.33163L7.04684 6.43163L5.70316 7.09837ZM8.67659 20.5082L11.2516 17.7132L10.1484 16.6968L7.57341 19.4918L8.67659 20.5082ZM18.9482 7.139L16.9282 9.333L18.0318 10.349L20.0518 8.155L18.9482 7.139ZM11.2516 17.7132L13.6516 15.1082L12.5484 14.0918L10.1484 16.6968L11.2516 17.7132ZM13.6523 15.1074L14.7373 13.9264L13.6327 12.9116L12.5477 14.0926L13.6523 15.1074ZM14.7367 13.9271L18.0317 10.3491L16.9283 9.33294L13.6333 12.9109L14.7367 13.9271ZM10.577 17.9448C11.2127 18.0506 11.8561 18.1035 12.5005 18.103L12.4995 16.603C11.9378 16.6034 11.3771 16.5573 10.823 16.4652L10.577 17.9448ZM12.5 18.103C14.5522 18.103 16.4456 17.5803 17.8496 16.6954C19.2439 15.8166 20.25 14.5083 20.25 12.941H18.75C18.75 13.8107 18.1891 14.7084 17.0499 15.4264C15.9204 16.1382 14.3138 16.603 12.5 16.603V18.103ZM20.2481 12.8877C20.1363 11.317 19.2226 9.91487 17.8309 9.17814L17.1291 10.5039C18.0634 10.9985 18.6768 11.9398 18.7519 12.9943L20.2481 12.8877ZM11.6883 13.5393C11.4657 13.2306 11.4339 12.8233 11.606 12.4838L10.268 11.8057C9.84236 12.6456 9.92092 13.6529 10.4717 14.4167L11.6883 13.5393ZM11.606 12.4838C11.7781 12.1442 12.1253 11.929 12.506 11.926L12.494 10.426C11.5524 10.4335 10.6937 10.9658 10.268 11.8057L11.606 12.4838ZM12.5009 11.926C12.6855 11.9258 12.8664 11.9776 13.0229 12.0756L13.8191 10.8044C13.4235 10.5566 12.9659 10.4254 12.4991 10.426L12.5009 11.926Z"
            fill="#000000" />
    </symbol>
    <symbol id="message" viewBox="0 0 24 24" fill="none">
        <path fill-rule="evenodd" clip-rule="evenodd"
            d="M9.1631 5H15.8381C17.8757 5.01541 19.5151 6.67943 19.5001 8.717V13.23C19.5073 14.2087 19.1254 15.1501 18.4384 15.8472C17.7515 16.5442 16.8158 16.9399 15.8371 16.947H9.1631L5.5001 19V8.717C5.49291 7.73834 5.8748 6.79692 6.56175 6.09984C7.24871 5.40276 8.18444 5.00713 9.1631 5Z"
            stroke="#000000" stroke-width="1.5" stroke-linecap="round" stroke-linejoin="round" />
    </symbol>
    <symbol id="location" viewBox="0 0 24 24" fill="none">
        <path
            d="M11.7 4.25C11.2858 4.24999 10.95 4.58577 10.95 4.99998C10.95 5.4142 11.2858 5.74999 11.7 5.75L11.7 4.25ZM13.5652 5.376L13.8555 4.68446L13.8552 4.68435L13.5652 5.376ZM15.7531 7.2L15.1268 7.61262L15.1272 7.6133L15.7531 7.2ZM16.575 9.94L17.325 9.94L17.325 9.93883L16.575 9.94ZM15.1466 13.433L14.536 12.9976C14.5271 13.01 14.5186 13.0228 14.5105 13.0357L15.1466 13.433ZM13.7309 15.7L13.0948 15.3027L13.0922 15.3069L13.7309 15.7ZM11.7 19L11.0617 19.3937C11.1983 19.6153 11.4401 19.7501 11.7004 19.75C11.9607 19.7499 12.2023 19.6148 12.3387 19.3931L11.7 19ZM9.66909 15.707L10.3075 15.3133L10.3055 15.3102L9.66909 15.707ZM8.25339 13.436L8.88985 13.0392C8.88178 13.0263 8.87332 13.0136 8.86447 13.0012L8.25339 13.436ZM6.82501 9.943L6.07501 9.94227V9.943H6.82501ZM7.64694 7.2L8.27278 7.6133L8.27282 7.61324L7.64694 7.2ZM9.83484 5.379L10.1247 6.07072L10.126 6.07018L9.83484 5.379ZM11.7011 5.75C12.1154 5.74937 12.4506 5.41308 12.45 4.99887C12.4494 4.58465 12.1131 4.24938 11.6989 4.25L11.7011 5.75ZM11.7 10.837C11.2858 10.837 10.95 11.1728 10.95 11.587C10.95 12.0012 11.2858 12.337 11.7 12.337V10.837ZM11.7 7.543C11.2858 7.543 10.95 7.87879 10.95 8.293C10.95 8.70721 11.2858 9.043 11.7 9.043L11.7 7.543ZM11.719 12.3428C12.133 12.3323 12.4602 11.9881 12.4498 11.574C12.4393 11.16 12.0951 10.8328 11.6811 10.8432L11.719 12.3428ZM10.2764 10.7817L10.927 10.4085L10.927 10.4085L10.2764 10.7817ZM10.2764 9.11131L9.62584 8.73812L9.62584 8.73812L10.2764 9.11131ZM11.6811 9.04976C12.0951 9.06023 12.4393 8.73303 12.4498 8.31895C12.4602 7.90487 12.133 7.56071 11.719 7.55024L11.6811 9.04976ZM11.7 5.75C12.2396 5.75001 12.7746 5.85774 13.2751 6.06765L13.8552 4.68435C13.1717 4.39771 12.4396 4.25002 11.7 4.25L11.7 5.75ZM13.2749 6.06754C14.0246 6.38224 14.6697 6.91882 15.1268 7.61262L16.3794 6.78738C15.761 5.84877 14.8836 5.11602 13.8555 4.68446L13.2749 6.06754ZM15.1272 7.6133C15.58 8.29886 15.8237 9.10956 15.825 9.94117L17.325 9.93883C17.3233 8.81655 16.9945 7.71889 16.3789 6.7867L15.1272 7.6133ZM15.825 9.94C15.825 10.5044 15.7399 10.9165 15.5556 11.3427C15.3608 11.7931 15.0461 12.2822 14.536 12.9976L15.7573 13.8684C16.269 13.1508 16.6684 12.5484 16.9324 11.9381C17.2068 11.3035 17.325 10.6856 17.325 9.94H15.825ZM14.5105 13.0357L13.0948 15.3027L14.3671 16.0973L15.7828 13.8303L14.5105 13.0357ZM13.0922 15.3069L11.0613 18.6069L12.3387 19.3931L14.3697 16.0931L13.0922 15.3069ZM12.3384 18.6063L10.3074 15.3133L9.03073 16.1007L11.0617 19.3937L12.3384 18.6063ZM10.3055 15.3102L8.88985 13.0392L7.61693 13.8328L9.03263 16.1038L10.3055 15.3102ZM8.86447 13.0012C8.35405 12.2838 8.03922 11.7947 7.84433 11.3444C7.66008 10.9186 7.57501 10.5073 7.57501 9.943H6.07501C6.07501 10.6887 6.19324 11.3059 6.46772 11.9401C6.73157 12.5498 7.13093 13.1522 7.6423 13.8708L8.86447 13.0012ZM7.57501 9.94373C7.57582 9.11123 7.81958 8.29958 8.27278 7.6133L7.02109 6.7867C6.40485 7.71986 6.0761 8.81882 6.07501 9.94227L7.57501 9.94373ZM8.27282 7.61324C8.73027 6.92039 9.37536 6.38473 10.1247 6.07072L9.54497 4.68728C8.51733 5.11791 7.63993 5.84942 7.02105 6.78676L8.27282 7.61324ZM10.126 6.07018C10.6264 5.8594 11.1613 5.75081 11.7011 5.75L11.6989 4.25C10.9591 4.25112 10.227 4.39999 9.54369 4.68782L10.126 6.07018ZM11.7 12.337C12.551 12.337 13.3277 11.8714 13.7443 11.1314L12.4371 10.3956C12.28 10.6748 11.9964 10.837 11.7 10.837V12.337ZM13.7443 11.1314C14.1597 10.3934 14.1597 9.4866 13.7443 8.7486L12.4371 9.4844C12.5954 9.76557 12.5954 10.1144 12.4371 10.3956L13.7443 11.1314ZM13.7443 8.7486C13.3277 8.00864 12.551 7.543 11.7 7.543L11.7 9.043C11.9964 9.043 12.28 9.2052 12.4371 9.4844L13.7443 8.7486ZM11.6811 10.8432C11.38 10.8508 11.0889 10.6908 10.927 10.4085L9.62584 11.1549C10.0553 11.9036 10.8541 12.3646 11.719 12.3428L11.6811 10.8432ZM10.927 10.4085C10.7638 10.1241 10.7638 9.76886 10.927 9.4845L9.62584 8.73812C9.19755 9.48474 9.19755 10.4083 9.62584 11.1549L10.927 10.4085ZM10.927 9.4845C11.0889 9.20225 11.38 9.04215 11.6811 9.04976L11.719 7.55024C10.8541 7.52838 10.0553 7.9894 9.62584 8.73812L10.927 9.4845Z"
            fill="#000000" />
    </symbol>
    <symbol id="pencil" viewBox="0 0 24 24" fill="none">
        <path
            d="M13.2942 7.95881C13.5533 7.63559 13.5013 7.16358 13.178 6.90453C12.8548 6.64549 12.3828 6.6975 12.1238 7.02072L13.2942 7.95881ZM6.811 14.8488L7.37903 15.3385C7.38489 15.3317 7.39062 15.3248 7.39623 15.3178L6.811 14.8488ZM6.64 15.2668L5.89146 15.2179L5.8908 15.2321L6.64 15.2668ZM6.5 18.2898L5.7508 18.2551C5.74908 18.2923 5.75013 18.3296 5.75396 18.3667L6.5 18.2898ZM7.287 18.9768L7.31152 19.7264C7.36154 19.7247 7.41126 19.7181 7.45996 19.7065L7.287 18.9768ZM10.287 18.2658L10.46 18.9956L10.4716 18.9927L10.287 18.2658ZM10.672 18.0218L11.2506 18.4991L11.2571 18.491L10.672 18.0218ZM17.2971 10.959C17.5562 10.6358 17.5043 10.1638 17.1812 9.90466C16.8581 9.64552 16.386 9.69742 16.1269 10.0206L17.2971 10.959ZM12.1269 7.02052C11.8678 7.34365 11.9196 7.81568 12.2428 8.07484C12.5659 8.33399 13.0379 8.28213 13.2971 7.95901L12.1269 7.02052ZM14.3 5.50976L14.8851 5.97901C14.8949 5.96672 14.9044 5.95412 14.9135 5.94123L14.3 5.50976ZM15.929 5.18976L16.4088 4.61332C16.3849 4.59344 16.3598 4.57507 16.3337 4.5583L15.929 5.18976ZM18.166 7.05176L18.6968 6.52192C18.6805 6.50561 18.6635 6.49007 18.6458 6.47532L18.166 7.05176ZM18.5029 7.87264L19.2529 7.87676V7.87676L18.5029 7.87264ZM18.157 8.68976L17.632 8.15412C17.6108 8.17496 17.5908 8.19704 17.5721 8.22025L18.157 8.68976ZM16.1271 10.0203C15.8678 10.3433 15.9195 10.8153 16.2425 11.0746C16.5655 11.3339 17.0376 11.2823 17.2969 10.9593L16.1271 10.0203ZM13.4537 7.37862C13.3923 6.96898 13.0105 6.68666 12.6009 6.74805C12.1912 6.80943 11.9089 7.19127 11.9703 7.60091L13.4537 7.37862ZM16.813 11.2329C17.2234 11.1772 17.5109 10.7992 17.4552 10.3888C17.3994 9.97834 17.0215 9.69082 16.611 9.74659L16.813 11.2329ZM12.1238 7.02072L6.22577 14.3797L7.39623 15.3178L13.2942 7.95881L12.1238 7.02072ZM6.24297 14.359C6.03561 14.5995 5.91226 14.9011 5.89159 15.218L7.38841 15.3156C7.38786 15.324 7.38457 15.3321 7.37903 15.3385L6.24297 14.359ZM5.8908 15.2321L5.7508 18.2551L7.2492 18.3245L7.3892 15.3015L5.8908 15.2321ZM5.75396 18.3667C5.83563 19.1586 6.51588 19.7524 7.31152 19.7264L7.26248 18.2272C7.25928 18.2273 7.25771 18.2268 7.25669 18.2264C7.25526 18.2259 7.25337 18.2249 7.25144 18.2232C7.2495 18.2215 7.24825 18.2198 7.24754 18.2185C7.24703 18.2175 7.24637 18.216 7.24604 18.2128L5.75396 18.3667ZM7.45996 19.7065L10.46 18.9955L10.114 17.536L7.11404 18.247L7.45996 19.7065ZM10.4716 18.9927C10.7771 18.9151 11.05 18.7422 11.2506 18.499L10.0934 17.5445C10.0958 17.5417 10.0989 17.5397 10.1024 17.5388L10.4716 18.9927ZM11.2571 18.491L17.2971 10.959L16.1269 10.0206L10.0869 17.5526L11.2571 18.491ZM13.2971 7.95901L14.8851 5.97901L13.7149 5.04052L12.1269 7.02052L13.2971 7.95901ZM14.9135 5.94123C15.0521 5.74411 15.3214 5.6912 15.5243 5.82123L16.3337 4.5583C15.4544 3.99484 14.2873 4.2241 13.6865 5.0783L14.9135 5.94123ZM15.4492 5.7662L17.6862 7.6282L18.6458 6.47532L16.4088 4.61332L15.4492 5.7662ZM17.6352 7.58161C17.7111 7.6577 17.7535 7.761 17.7529 7.86852L19.2529 7.87676C19.2557 7.36905 19.0555 6.88127 18.6968 6.52192L17.6352 7.58161ZM17.7529 7.86852C17.7524 7.97604 17.7088 8.07886 17.632 8.15412L18.682 9.22541C19.0446 8.87002 19.2501 8.38447 19.2529 7.87676L17.7529 7.86852ZM17.5721 8.22025L16.1271 10.0203L17.2969 10.9593L18.7419 9.15928L17.5721 8.22025ZM11.9703 7.60091C12.3196 9.93221 14.4771 11.5503 16.813 11.2329L16.611 9.74659C15.0881 9.95352 13.6815 8.89855 13.4537 7.37862L11.9703 7.60091Z"
            fill="#000000" />
    </symbol>
    <symbol id="notification" viewBox="0 0 24 24" fill="none">
        <path
            d="M11.713 7.14977C12.1271 7.13953 12.4545 6.79555 12.4443 6.38146C12.434 5.96738 12.0901 5.63999 11.676 5.65023L11.713 7.14977ZM6.30665 12.193H7.05665C7.05665 12.1874 7.05659 12.1818 7.05646 12.1761L6.30665 12.193ZM6.30665 14.51L6.34575 15.259C6.74423 15.2382 7.05665 14.909 7.05665 14.51H6.30665ZM6.30665 17.6L6.26755 18.349C6.28057 18.3497 6.29361 18.35 6.30665 18.35L6.30665 17.6ZM9.41983 18.35C9.83404 18.35 10.1698 18.0142 10.1698 17.6C10.1698 17.1858 9.83404 16.85 9.41983 16.85V18.35ZM10.9445 6.4C10.9445 6.81421 11.2803 7.15 11.6945 7.15C12.1087 7.15 12.4445 6.81421 12.4445 6.4H10.9445ZM12.4445 4C12.4445 3.58579 12.1087 3.25 11.6945 3.25C11.2803 3.25 10.9445 3.58579 10.9445 4H12.4445ZM11.713 5.65023C11.299 5.63999 10.955 5.96738 10.9447 6.38146C10.9345 6.79555 11.2619 7.13953 11.676 7.14977L11.713 5.65023ZM17.0824 12.193L16.3325 12.1761C16.3324 12.1818 16.3324 12.1874 16.3324 12.193H17.0824ZM17.0824 14.51H16.3324C16.3324 14.909 16.6448 15.2382 17.0433 15.259L17.0824 14.51ZM17.0824 17.6V18.35C17.0954 18.35 17.1084 18.3497 17.1215 18.349L17.0824 17.6ZM13.9692 16.85C13.555 16.85 13.2192 17.1858 13.2192 17.6C13.2192 18.0142 13.555 18.35 13.9692 18.35V16.85ZM10.1688 17.6027C10.1703 17.1885 9.83574 16.8515 9.42153 16.85C9.00732 16.8485 8.67034 17.1831 8.66886 17.5973L10.1688 17.6027ZM10.0848 19.3L10.6322 18.7873L10.6309 18.786L10.0848 19.3ZM13.3023 19.3L12.7561 18.786L12.7549 18.7873L13.3023 19.3ZM14.7182 17.5973C14.7167 17.1831 14.3797 16.8485 13.9655 16.85C13.5513 16.8515 13.2167 17.1885 13.2182 17.6027L14.7182 17.5973ZM9.41788 16.85C9.00366 16.85 8.66788 17.1858 8.66788 17.6C8.66788 18.0142 9.00366 18.35 9.41788 18.35V16.85ZM13.9692 18.35C14.3834 18.35 14.7192 18.0142 14.7192 17.6C14.7192 17.1858 14.3834 16.85 13.9692 16.85V18.35ZM11.676 5.65023C8.198 5.73622 5.47765 8.68931 5.55684 12.2099L7.05646 12.1761C6.99506 9.44664 9.09735 7.21444 11.713 7.14977L11.676 5.65023ZM5.55665 12.193V14.51H7.05665V12.193H5.55665ZM6.26755 13.761C5.0505 13.8246 4.125 14.8488 4.125 16.055H5.625C5.625 15.6136 5.95844 15.2792 6.34575 15.259L6.26755 13.761ZM4.125 16.055C4.125 17.2612 5.0505 18.2854 6.26755 18.349L6.34575 16.851C5.95843 16.8308 5.625 16.4964 5.625 16.055H4.125ZM6.30665 18.35H9.41983V16.85H6.30665V18.35ZM12.4445 6.4V4H10.9445V6.4H12.4445ZM11.676 7.14977C14.2917 7.21444 16.3939 9.44664 16.3325 12.1761L17.8322 12.2099C17.9114 8.68931 15.191 5.73622 11.713 5.65023L11.676 7.14977ZM16.3324 12.193V14.51H17.8324V12.193H16.3324ZM17.0433 15.259C17.4306 15.2792 17.764 15.6136 17.764 16.055H19.264C19.264 14.8488 18.3385 13.8246 17.1215 13.761L17.0433 15.259ZM17.764 16.055C17.764 16.4964 17.4306 16.8308 17.0433 16.851L17.1215 18.349C18.3385 18.2854 19.264 17.2612 19.264 16.055H17.764ZM17.0824 16.85H13.9692V18.35H17.0824V16.85ZM8.66886 17.5973C8.66592 18.4207 8.976 19.2162 9.53861 19.814L10.6309 18.786C10.335 18.4715 10.1673 18.0473 10.1688 17.6027L8.66886 17.5973ZM9.53739 19.8127C10.0977 20.4109 10.8758 20.7529 11.6935 20.7529V19.2529C11.2969 19.2529 10.9132 19.0873 10.6322 18.7873L9.53739 19.8127ZM11.6935 20.7529C12.5113 20.7529 13.2894 20.4109 13.8497 19.8127L12.7549 18.7873C12.4739 19.0873 12.0901 19.2529 11.6935 19.2529V20.7529ZM13.8484 19.814C14.4111 19.2162 14.7211 18.4207 14.7182 17.5973L13.2182 17.6027C13.2198 18.0473 13.0521 18.4715 12.7561 18.786L13.8484 19.814ZM9.41788 18.35H13.9692V16.85H9.41788V18.35Z"
            fill="#000000" />
    </symbol>
    <symbol id="search" viewBox="0 0 24 24" fill="none">
        <path fill-rule="evenodd" clip-rule="evenodd"
            d="M7.30524 15.7137C6.4404 14.8306 5.85381 13.7131 5.61824 12.4997C5.38072 11.2829 5.50269 10.0233 5.96924 8.87469C6.43181 7.73253 7.22153 6.75251 8.23924 6.05769C10.3041 4.64744 13.0224 4.64744 15.0872 6.05769C16.105 6.75251 16.8947 7.73253 17.3572 8.87469C17.8238 10.0233 17.9458 11.2829 17.7082 12.4997C17.4727 13.7131 16.8861 14.8306 16.0212 15.7137C14.8759 16.889 13.3044 17.5519 11.6632 17.5519C10.0221 17.5519 8.45059 16.889 7.30524 15.7137V15.7137Z"
            stroke="#000000" stroke-width="1.5" stroke-linecap="round" stroke-linejoin="round" />
        <path
            d="M11.6702 7.20292C11.2583 7.24656 10.9598 7.61586 11.0034 8.02777C11.0471 8.43968 11.4164 8.73821 11.8283 8.69457L11.6702 7.20292ZM13.5216 9.69213C13.6831 10.0736 14.1232 10.2519 14.5047 10.0904C14.8861 9.92892 15.0644 9.4888 14.9029 9.10736L13.5216 9.69213ZM16.6421 15.0869C16.349 14.7943 15.8741 14.7947 15.5815 15.0879C15.2888 15.381 15.2893 15.8559 15.5824 16.1485L16.6421 15.0869ZM18.9704 19.5305C19.2636 19.8232 19.7384 19.8228 20.0311 19.5296C20.3237 19.2364 20.3233 18.7616 20.0301 18.4689L18.9704 19.5305ZM11.8283 8.69457C12.5508 8.61801 13.2384 9.02306 13.5216 9.69213L14.9029 9.10736C14.3622 7.83005 13.0496 7.05676 11.6702 7.20292L11.8283 8.69457ZM15.5824 16.1485L18.9704 19.5305L20.0301 18.4689L16.6421 15.0869L15.5824 16.1485Z"
            fill="#000000" />
    </symbol>
    <symbol id="logout" viewBox="0 0 24 24" fill="none">
        <path
            d="M15.014 8.46835C14.7204 8.17619 14.2455 8.17737 13.9533 8.47099C13.6612 8.76462 13.6624 9.23949 13.956 9.53165L15.014 8.46835ZM16.971 12.5317C17.2646 12.8238 17.7395 12.8226 18.0317 12.529C18.3238 12.2354 18.3226 11.7605 18.029 11.4683L16.971 12.5317ZM18.029 12.5317C18.3226 12.2395 18.3238 11.7646 18.0317 11.471C17.7395 11.1774 17.2646 11.1762 16.971 11.4683L18.029 12.5317ZM13.956 14.4683C13.6624 14.7605 13.6612 15.2354 13.9533 15.529C14.2455 15.8226 14.7204 15.8238 15.014 15.5317L13.956 14.4683ZM17.5 12.75C17.9142 12.75 18.25 12.4142 18.25 12C18.25 11.5858 17.9142 11.25 17.5 11.25V12.75ZM3.5 11.25C3.08579 11.25 2.75 11.5858 2.75 12C2.75 12.4142 3.08579 12.75 3.5 12.75V11.25ZM13.956 9.53165L16.971 12.5317L18.029 11.4683L15.014 8.46835L13.956 9.53165ZM16.971 11.4683L13.956 14.4683L15.014 15.5317L18.029 12.5317L16.971 11.4683ZM17.5 11.25H3.5V12.75H17.5V11.25Z"
            fill="#000000" />
        <path
            d="M9.5 15C9.5 17.2091 11.2909 19 13.5 19H17.5C19.7091 19 21.5 17.2091 21.5 15V9C21.5 6.79086 19.7091 5 17.5 5H13.5C11.2909 5 9.5 6.79086 9.5 9"
            stroke="#000000" stroke-width="1.5" stroke-linecap="round" stroke-linejoin="round" />
        <path
            d="M15.014 8.46835C14.7204 8.17619 14.2455 8.17737 13.9533 8.47099C13.6612 8.76462 13.6624 9.23949 13.956 9.53165L15.014 8.46835ZM16.971 12.5317C17.2646 12.8238 17.7395 12.8226 18.0317 12.529C18.3238 12.2354 18.3226 11.7605 18.029 11.4683L16.971 12.5317ZM18.029 12.5317C18.3226 12.2395 18.3238 11.7646 18.0317 11.471C17.7395 11.1774 17.2646 11.1762 16.971 11.4683L18.029 12.5317ZM13.956 14.4683C13.6624 14.7605 13.6612 15.2354 13.9533 15.529C14.2455 15.8226 14.7204 15.8238 15.014 15.5317L13.956 14.4683ZM17.5 12.75C17.9142 12.75 18.25 12.4142 18.25 12C18.25 11.5858 17.9142 11.25 17.5 11.25V12.75ZM3.5 11.25C3.08579 11.25 2.75 11.5858 2.75 12C2.75 12.4142 3.08579 12.75 3.5 12.75V11.25ZM13.956 9.53165L16.971 12.5317L18.029 11.4683L15.014 8.46835L13.956 9.53165ZM16.971 11.4683L13.956 14.4683L15.014 15.5317L18.029 12.5317L16.971 11.4683ZM17.5 11.25H3.5V12.75H17.5V11.25Z"
            fill="#000000" />
        <path
            d="M9.5 15C9.5 17.2091 11.2909 19 13.5 19H17.5C19.7091 19 21.5 17.2091 21.5 15V9C21.5 6.79086 19.7091 5 17.5 5H13.5C11.2909 5 9.5 6.79086 9.5 9"
            stroke="#000000" stroke-width="1.5" stroke-linecap="round" stroke-linejoin="round" />
    </symbol>
    <symbol id="car" viewBox="0 0 24 24" fill="none">
        <path fill-rule="evenodd" clip-rule="evenodd"
            d="M5.27097 8.214C6.02074 6.312 6.92262 5 8.96427 5H14.4369C16.4766 5 17.3795 6.312 18.1302 8.214L18.88 10.249C19.4387 10.2559 19.9519 10.5661 20.2284 11.064C20.3911 11.3476 20.4763 11.6709 20.4751 12V14.624C20.4824 15.2367 20.1808 15.8098 19.6776 16.14C19.4382 16.2929 19.162 16.3739 18.88 16.374H4.52022C4.23827 16.3739 3.96199 16.2929 3.72267 16.14C3.21939 15.8098 2.91786 15.2367 2.92512 14.624V12C2.92406 11.6713 3.00927 11.3483 3.17179 11.065C3.44833 10.5671 3.96155 10.2569 4.52022 10.25L5.27097 8.214Z"
            stroke="#000000" stroke-width="1.5" stroke-linecap="round" stroke-linejoin="round" />
        <path
            d="M6.86629 16.375C6.86629 15.9608 6.53051 15.625 6.11629 15.625C5.70208 15.625 5.36629 15.9608 5.36629 16.375H6.86629ZM6.11629 17.688H5.36629C5.36629 17.6958 5.36641 17.7036 5.36666 17.7114L6.11629 17.688ZM4.91899 19L4.89219 19.7495C4.90986 19.7502 4.92754 19.7502 4.9452 19.7496L4.91899 19ZM3.72267 17.687L4.47228 17.711C4.47254 17.703 4.47267 17.695 4.47267 17.687L3.72267 17.687ZM4.47267 16.14C4.47267 15.7258 4.13688 15.39 3.72267 15.39C3.30845 15.39 2.97267 15.7258 2.97267 16.14H4.47267ZM4.52022 9.49902C4.106 9.49902 3.77022 9.83481 3.77022 10.249C3.77022 10.6632 4.106 10.999 4.52022 10.999V9.49902ZM18.88 10.999C19.2942 10.999 19.63 10.6632 19.63 10.249C19.63 9.83481 19.2942 9.49902 18.88 9.49902V10.999ZM18.0349 16.374C18.0349 15.9598 17.6991 15.624 17.2849 15.624C16.8707 15.624 16.5349 15.9598 16.5349 16.374H18.0349ZM17.2849 17.687L18.0335 17.7336C18.0344 17.7181 18.0349 17.7026 18.0349 17.687H17.2849ZM17.8602 18.8173L18.2561 18.1803L18.2561 18.1803L17.8602 18.8173ZM19.1033 18.8173L18.7074 18.1803L18.7074 18.1803L19.1033 18.8173ZM19.6785 17.687H18.9285C18.9285 17.7026 18.929 17.7181 18.93 17.7336L19.6785 17.687ZM20.4285 16.14C20.4285 15.7258 20.0928 15.39 19.6785 15.39C19.2643 15.39 18.9285 15.7258 18.9285 16.14H20.4285ZM5.85012 12.75C5.4359 12.75 5.10012 13.0858 5.10012 13.5C5.10012 13.9142 5.4359 14.25 5.85012 14.25V12.75ZM6.82512 14.25C7.23933 14.25 7.57512 13.9142 7.57512 13.5C7.57512 13.0858 7.23933 12.75 6.82512 12.75V14.25ZM16.5751 12.75C16.1609 12.75 15.8251 13.0858 15.8251 13.5C15.8251 13.9142 16.1609 14.25 16.5751 14.25V12.75ZM17.5501 14.25C17.9643 14.25 18.3001 13.9142 18.3001 13.5C18.3001 13.0858 17.9643 12.75 17.5501 12.75V14.25ZM5.36629 16.375V17.688H6.86629V16.375H5.36629ZM5.36666 17.7114C5.37622 18.0175 5.14582 18.2416 4.89278 18.2505L4.9452 19.7496C6.05927 19.7106 6.90017 18.7608 6.86593 17.6646L5.36666 17.7114ZM4.94579 18.2505C4.69273 18.2415 4.46248 18.0171 4.47228 17.711L2.97305 17.663C2.93793 18.7592 3.77813 19.7097 4.89219 19.7495L4.94579 18.2505ZM4.47267 17.687V16.14H2.97267V17.687H4.47267ZM4.52022 10.999H18.88V9.49902H4.52022V10.999ZM16.5349 16.374V17.687H18.0349V16.374H16.5349ZM16.5364 17.6404C16.4912 18.3667 16.8425 19.0678 17.4642 19.4543L18.2561 18.1803C18.1138 18.0919 18.0217 17.9219 18.0335 17.7336L16.5364 17.6404ZM17.4642 19.4543C18.0887 19.8424 18.8747 19.8424 19.4992 19.4543L18.7074 18.1803C18.5678 18.2671 18.3957 18.2671 18.2561 18.1803L17.4642 19.4543ZM19.4992 19.4543C20.121 19.0678 20.4723 18.3667 20.4271 17.6404L18.93 17.7336C18.9417 17.9219 18.8497 18.0919 18.7074 18.1803L19.4992 19.4543ZM20.4285 17.687V16.14H18.9285V17.687H20.4285ZM5.85012 14.25H6.82512V12.75H5.85012V14.25ZM16.5751 14.25H17.5501V12.75H16.5751V14.25Z"
            fill="#000000" />
    </symbol>
    <symbol id="user" viewBox="0 0 24 24" fill="none">
        <path fill-rule="evenodd" clip-rule="evenodd"
            d="M14.9769 14H10.0229C8.56488 14.0724 7.2731 14.963 6.68693 16.3C5.97993 17.688 7.39093 19 9.03193 19H15.9679C17.6099 19 19.0209 17.688 18.3129 16.3C17.7268 14.963 16.435 14.0724 14.9769 14Z"
            stroke="#000000" stroke-width="1.5" stroke-linecap="round" stroke-linejoin="round" />
        <path fill-rule="evenodd" clip-rule="evenodd"
            d="M15.4999 8C15.4999 9.65685 14.1568 11 12.4999 11C10.8431 11 9.49994 9.65685 9.49994 8C9.49994 6.34315 10.8431 5 12.4999 5C13.2956 5 14.0587 5.31607 14.6213 5.87868C15.1839 6.44129 15.4999 7.20435 15.4999 8Z"
            stroke="#000000" stroke-width="1.5" stroke-linecap="round" stroke-linejoin="round" />
    </symbol>
    <symbol id="tick" viewBox="0 0 24 24" fill="none">
        <path d="M5.5 12.5L10.167 17L19.5 8" stroke="#000000" stroke-width="1.5"
            stroke-linecap="round" stroke-linejoin="round" />
    </symbol>
</svg>